<?xml version="1.0" encoding="UTF-8" standalone="no"?>
<!-- Created with Inkscape (http://www.inkscape.org/) -->

<svg
   xmlns:dc="http://purl.org/dc/elements/1.1/"
   xmlns:cc="http://creativecommons.org/ns#"
   xmlns:rdf="http://www.w3.org/1999/02/22-rdf-syntax-ns#"
   xmlns:svg="http://www.w3.org/2000/svg"
   xmlns="http://www.w3.org/2000/svg"
   version="1.1"
   width="48"
   height="48"
   id="svg2">
  <defs
     id="defs4" />
  <metadata
     id="metadata7">
    <rdf:RDF>
      <cc:Work
         rdf:about="">
        <dc:format>image/svg+xml</dc:format>
        <dc:type
           rdf:resource="http://purl.org/dc/dcmitype/StillImage" />
        <dc:title></dc:title>
      </cc:Work>
    </rdf:RDF>
  </metadata>
  <g
     transform="translate(0,-1004.3622)"
     id="layer1">
    <g
       transform="matrix(0.99411794,0.10830294,-0.10830294,0.99411794,114.69933,10.511992)"
       id="g4394">
      <g
         id="g3005"
         style="fill:#4d4d4d;fill-opacity:1">
        <g
           id="g3000"
           style="fill:#4d4d4d;fill-opacity:1">
          <g
             id="g2996"
             style="fill:#4d4d4d;fill-opacity:1">
            <g
               id="g2993"
               style="fill:#4d4d4d;fill-opacity:1">
              <path
                 d="m 17.670355,999.89555 c -12.0904034,1.31715 -20.7735304,12.21375 -19.4678076,24.19905 1.30571377,11.9852 12.1259156,20.705 24.2163186,19.3878 12.090403,-1.3172 20.830588,-12.1679 19.524873,-24.1531 -1.305722,-11.9853 -12.182981,-20.75089 -24.273384,-19.43375 z m 0.263495,2.41875 c 10.646154,-1.1599 20.29131,6.5411 21.462608,17.2925 1.171289,10.7513 -6.594933,20.2971 -17.241086,21.457 -10.646155,1.1598 -20.2085244,-6.4982 -21.3798133,-17.2495 -1.17129789,-10.7514 6.5121365,-20.3402 17.1582913,-21.5 z m 5.076409,5.2528 c -0.95462,0.1226 -1.835429,0.6334 -2.309811,1.5014 -2.549709,3.5957 -5.179611,7.2826 -7.766345,10.9218 -0.779168,1.1098 -1.582196,2.207 -2.345161,3.3277 -0.454436,3.8063 -0.8551227,7.6228 -1.2535317,11.4359 3.3006097,-1.5899 6.6185667,-3.1491 9.9253367,-4.7262 0.408708,-0.059 0.66997,-0.5589 0.916577,-0.907 3.319357,-4.6965 6.666894,-9.3734 9.973946,-14.0783 0.983263,-1.8057 -0.251919,-3.8976 -1.601045,-5.1368 -1.266754,-1.1722 -2.838407,-2.1266 -4.57674,-2.3393 -0.319617,-0.051 -0.64502,-0.04 -0.963226,8e-4 z m -10.636233,16.3635 c 0.275861,-0.045 0.555363,-0.042 0.831773,-0.012 2.142997,0.3502 4.128724,1.8033 5.07101,3.7695 0.506407,0.7376 0.02841,1.1533 -0.660279,1.3476 -1.206207,0.5729 -2.407431,1.1486 -3.613637,1.7215 -0.363315,-1.1102 -1.902758,-1.3514 -2.448254,-1.9203 l 0.539159,-4.8492 c 0.08905,-0.031 0.188274,-0.042 0.280228,-0.056 z"
                 id="path3765"
                 style="font-size:medium;font-style:normal;font-variant:normal;font-weight:normal;font-stretch:normal;text-indent:0;text-align:start;text-decoration:none;line-height:normal;letter-spacing:normal;word-spacing:normal;text-transform:none;direction:ltr;block-progression:tb;writing-mode:lr-tb;text-anchor:start;color:#000000;fill:#999999;fill-opacity:1;stroke:none;stroke-width:20.41600037;marker:none;visibility:visible;display:inline;overflow:visible;enable-background:accumulate;font-family:'.PhonepadTwo';-inkscape-font-specification:'.PhonepadTwo'" />
            </g>
          </g>
        </g>
      </g>
    </g>
  </g>
</svg>
